<svg width="102" height="19" viewBox="0 0 102 19" fill="none" xmlns="http://www.w3.org/2000/svg">
<path d="M7.272 18.192C6.056 18.192 4.96 17.92 3.984 17.376C3.008 16.816 2.232 16.04 1.656 15.048C1.096 14.056 0.816 12.888 0.816 11.544C0.816 10.184 1.096 9.008 1.656 8.016C2.232 7.024 3.008 6.256 3.984 5.712C4.96 5.168 6.056 4.896 7.272 4.896C8.36 4.896 9.312 5.136 10.128 5.616C10.944 6.096 11.576 6.824 12.024 7.8C12.472 8.776 12.696 10.024 12.696 11.544C12.696 13.048 12.48 14.296 12.048 15.288C11.616 16.264 10.992 16.992 10.176 17.472C9.376 17.952 8.408 18.192 7.272 18.192ZM7.92 15.12C8.528 15.12 9.08 14.976 9.576 14.688C10.072 14.4 10.464 13.992 10.752 13.464C11.056 12.92 11.208 12.28 11.208 11.544C11.208 10.792 11.056 10.152 10.752 9.624C10.464 9.096 10.072 8.688 9.576 8.4C9.08 8.112 8.528 7.968 7.92 7.968C7.296 7.968 6.736 8.112 6.24 8.4C5.744 8.688 5.344 9.096 5.04 9.624C4.752 10.152 4.608 10.792 4.608 11.544C4.608 12.28 4.752 12.92 5.04 13.464C5.344 13.992 5.744 14.4 6.24 14.688C6.736 14.976 7.296 15.12 7.92 15.12ZM11.304 18V15.36L11.376 11.52L11.136 7.704V0.191999H14.88V18H11.304ZM24.7532 18.192C23.2812 18.192 21.9852 17.904 20.8652 17.328C19.7612 16.752 18.9052 15.968 18.2972 14.976C17.6892 13.968 17.3852 12.824 17.3852 11.544C17.3852 10.248 17.6812 9.104 18.2732 8.112C18.8812 7.104 19.7052 6.32 20.7452 5.76C21.7852 5.184 22.9612 4.896 24.2732 4.896C25.5372 4.896 26.6732 5.168 27.6812 5.712C28.7052 6.24 29.5132 7.008 30.1052 8.016C30.6972 9.008 30.9932 10.2 30.9932 11.592C30.9932 11.736 30.9852 11.904 30.9692 12.096C30.9532 12.272 30.9372 12.44 30.9212 12.6H20.4332V10.416H28.9532L27.5132 11.064C27.5132 10.392 27.3772 9.808 27.1052 9.312C26.8332 8.816 26.4572 8.432 25.9772 8.16C25.4972 7.872 24.9372 7.728 24.2972 7.728C23.6572 7.728 23.0892 7.872 22.5932 8.16C22.1132 8.432 21.7372 8.824 21.4652 9.336C21.1932 9.832 21.0572 10.424 21.0572 11.112V11.688C21.0572 12.392 21.2092 13.016 21.5132 13.56C21.8332 14.088 22.2732 14.496 22.8332 14.784C23.4092 15.056 24.0812 15.192 24.8492 15.192C25.5372 15.192 26.1372 15.088 26.6492 14.88C27.1772 14.672 27.6572 14.36 28.0892 13.944L30.0812 16.104C29.4892 16.776 28.7452 17.296 27.8492 17.664C26.9532 18.016 25.9212 18.192 24.7532 18.192ZM41.0543 18V15.48L40.8143 14.928V10.416C40.8143 9.616 40.5663 8.992 40.0703 8.544C39.5903 8.096 38.8463 7.872 37.8383 7.872C37.1503 7.872 36.4703 7.984 35.7983 8.208C35.1423 8.416 34.5823 8.704 34.1183 9.072L32.7743 6.456C33.4783 5.96 34.3263 5.576 35.3183 5.304C36.3103 5.032 37.3183 4.896 38.3423 4.896C40.3103 4.896 41.8383 5.36 42.9263 6.288C44.0143 7.216 44.5583 8.664 44.5583 10.632V18H41.0543ZM37.1183 18.192C36.1103 18.192 35.2463 18.024 34.5263 17.688C33.8063 17.336 33.2543 16.864 32.8703 16.272C32.4863 15.68 32.2943 15.016 32.2943 14.28C32.2943 13.512 32.4783 12.84 32.8463 12.264C33.2303 11.688 33.8303 11.24 34.6463 10.92C35.4623 10.584 36.5263 10.416 37.8383 10.416H41.2703V12.6H38.2463C37.3663 12.6 36.7583 12.744 36.4223 13.032C36.1023 13.32 35.9423 13.68 35.9423 14.112C35.9423 14.592 36.1263 14.976 36.4943 15.264C36.8783 15.536 37.3983 15.672 38.0543 15.672C38.6783 15.672 39.2383 15.528 39.7343 15.24C40.2303 14.936 40.5903 14.496 40.8143 13.92L41.3903 15.648C41.1183 16.48 40.6223 17.112 39.9023 17.544C39.1823 17.976 38.2543 18.192 37.1183 18.192ZM47.9468 18V0.191999H51.6908V18H47.9468ZM59.5095 18.192C58.4055 18.192 57.3415 18.064 56.3175 17.808C55.3095 17.536 54.5095 17.2 53.9175 16.8L55.1655 14.112C55.7575 14.48 56.4535 14.784 57.2535 15.024C58.0695 15.248 58.8695 15.36 59.6535 15.36C60.5175 15.36 61.1255 15.256 61.4775 15.048C61.8455 14.84 62.0295 14.552 62.0295 14.184C62.0295 13.88 61.8855 13.656 61.5975 13.512C61.3255 13.352 60.9575 13.232 60.4935 13.152C60.0295 13.072 59.5175 12.992 58.9575 12.912C58.4135 12.832 57.8615 12.728 57.3015 12.6C56.7415 12.456 56.2295 12.248 55.7655 11.976C55.3015 11.704 54.9255 11.336 54.6375 10.872C54.3655 10.408 54.2295 9.808 54.2295 9.072C54.2295 8.256 54.4615 7.536 54.9255 6.912C55.4055 6.288 56.0935 5.8 56.9895 5.448C57.8855 5.08 58.9575 4.896 60.2055 4.896C61.0855 4.896 61.9815 4.992 62.8935 5.184C63.8055 5.376 64.5655 5.656 65.1735 6.024L63.9255 8.688C63.3015 8.32 62.6695 8.072 62.0295 7.944C61.4055 7.8 60.7975 7.728 60.2055 7.728C59.3735 7.728 58.7655 7.84 58.3815 8.064C57.9975 8.288 57.8055 8.576 57.8055 8.928C57.8055 9.248 57.9415 9.488 58.2135 9.648C58.5015 9.808 58.8775 9.936 59.3415 10.032C59.8055 10.128 60.3095 10.216 60.8535 10.296C61.4135 10.36 61.9735 10.464 62.5335 10.608C63.0935 10.752 63.5975 10.96 64.0455 11.232C64.5095 11.488 64.8855 11.848 65.1735 12.312C65.4615 12.76 65.6055 13.352 65.6055 14.088C65.6055 14.888 65.3655 15.6 64.8855 16.224C64.4055 16.832 63.7095 17.312 62.7975 17.664C61.9015 18.016 60.8055 18.192 59.5095 18.192ZM74.3235 18.192C72.8515 18.192 71.5555 17.904 70.4355 17.328C69.3315 16.752 68.4755 15.968 67.8675 14.976C67.2595 13.968 66.9555 12.824 66.9555 11.544C66.9555 10.248 67.2515 9.104 67.8435 8.112C68.4515 7.104 69.2755 6.32 70.3155 5.76C71.3555 5.184 72.5315 4.896 73.8435 4.896C75.1075 4.896 76.2435 5.168 77.2515 5.712C78.2755 6.24 79.0835 7.008 79.6755 8.016C80.2675 9.008 80.5635 10.2 80.5635 11.592C80.5635 11.736 80.5555 11.904 80.5395 12.096C80.5235 12.272 80.5075 12.44 80.4915 12.6H70.0035V10.416H78.5235L77.0835 11.064C77.0835 10.392 76.9475 9.808 76.6755 9.312C76.4035 8.816 76.0275 8.432 75.5475 8.16C75.0675 7.872 74.5075 7.728 73.8675 7.728C73.2275 7.728 72.6595 7.872 72.1635 8.16C71.6835 8.432 71.3075 8.824 71.0355 9.336C70.7635 9.832 70.6275 10.424 70.6275 11.112V11.688C70.6275 12.392 70.7795 13.016 71.0835 13.56C71.4035 14.088 71.8435 14.496 72.4035 14.784C72.9795 15.056 73.6515 15.192 74.4195 15.192C75.1075 15.192 75.7075 15.088 76.2195 14.88C76.7475 14.672 77.2275 14.36 77.6595 13.944L79.6515 16.104C79.0595 16.776 78.3155 17.296 77.4195 17.664C76.5235 18.016 75.4915 18.192 74.3235 18.192ZM90.6246 18V15.48L90.3846 14.928V10.416C90.3846 9.616 90.1366 8.992 89.6406 8.544C89.1606 8.096 88.4166 7.872 87.4086 7.872C86.7206 7.872 86.0406 7.984 85.3686 8.208C84.7126 8.416 84.1526 8.704 83.6886 9.072L82.3446 6.456C83.0486 5.96 83.8966 5.576 84.8886 5.304C85.8806 5.032 86.8886 4.896 87.9126 4.896C89.8806 4.896 91.4086 5.36 92.4966 6.288C93.5846 7.216 94.1286 8.664 94.1286 10.632V18H90.6246ZM86.6886 18.192C85.6806 18.192 84.8166 18.024 84.0966 17.688C83.3766 17.336 82.8246 16.864 82.4406 16.272C82.0566 15.68 81.8646 15.016 81.8646 14.28C81.8646 13.512 82.0486 12.84 82.4166 12.264C82.8006 11.688 83.4006 11.24 84.2166 10.92C85.0326 10.584 86.0966 10.416 87.4086 10.416H90.8406V12.6H87.8166C86.9366 12.6 86.3286 12.744 85.9926 13.032C85.6726 13.32 85.5126 13.68 85.5126 14.112C85.5126 14.592 85.6966 14.976 86.0646 15.264C86.4486 15.536 86.9686 15.672 87.6246 15.672C88.2486 15.672 88.8086 15.528 89.3046 15.24C89.8006 14.936 90.1606 14.496 90.3846 13.92L90.9606 15.648C90.6886 16.48 90.1926 17.112 89.4726 17.544C88.7526 17.976 87.8246 18.192 86.6886 18.192ZM97.5171 18V0.191999H101.261V18H97.5171Z" fill="#EA352B"/>
</svg>
